<svg width="25" height="25" viewBox="0 0 25 25" fill="none" xmlns="http://www.w3.org/2000/svg">
<g clip-path="url(#clip0_1_54)">
<path fill-rule="evenodd" clip-rule="evenodd" d="M0.5 12.2733C0.5 18.2393 4.833 23.2003 10.5 24.2063V15.5393H7.5V12.2063H10.5V9.5393C10.5 6.5393 12.433 4.8733 15.167 4.8733C16.033 4.8733 16.967 5.0063 17.833 5.1393V8.2063H16.3C14.833 8.2063 14.5 8.9393 14.5 9.8733V12.2063H17.7L17.167 15.5393H14.5V24.2063C20.167 23.2003 24.5 18.2403 24.5 12.2733C24.5 5.6363 19.1 0.206299 12.5 0.206299C5.9 0.206299 0.5 5.6363 0.5 12.2733Z" fill="#4267B2"/>
</g>
<defs>
<clipPath id="clip0_1_54">
<rect width="24" height="24" fill="white" transform="translate(0.5 0.206299)"/>
</clipPath>
</defs>
</svg>
