<svg width="25" height="25" viewBox="0 0 25 25" fill="none" xmlns="http://www.w3.org/2000/svg">
<path d="M23.001 13.1644C23.001 12.3011 22.9296 11.6711 22.7748 11.0178H12.7153V14.9144H18.62C18.501 15.8828 17.8582 17.3411 16.4296 18.321L16.4096 18.4515L19.5902 20.8662L19.8106 20.8878C21.8343 19.0561 23.001 16.3611 23.001 13.1644Z" fill="#4285F4"/>
<path d="M12.714 23.4312C15.6068 23.4312 18.0353 22.4979 19.8092 20.8879L16.4282 18.3211C15.5235 18.9395 14.3092 19.3711 12.714 19.3711C9.88069 19.3711 7.47596 17.5395 6.61874 15.0078L6.49309 15.0183L3.18583 17.5266L3.14258 17.6445C4.90446 21.0745 8.5235 23.4312 12.714 23.4312Z" fill="#34A853"/>
<path d="M6.62046 15.0079C6.39428 14.3546 6.26337 13.6546 6.26337 12.9313C6.26337 12.2079 6.39428 11.5079 6.60856 10.8546L6.60257 10.7155L3.25386 8.16682L3.14429 8.2179C2.41814 9.64125 2.00146 11.2396 2.00146 12.9313C2.00146 14.6229 2.41814 16.2212 3.14429 17.6446L6.62046 15.0079Z" fill="#FBBC05"/>
<path d="M12.7141 6.4912C14.7259 6.4912 16.083 7.34286 16.8569 8.05458L19.8807 5.16123C18.0236 3.46957 15.6069 2.43123 12.7141 2.43123C8.52353 2.43123 4.90447 4.78788 3.14258 8.21785L6.60686 10.8546C7.47598 8.32289 9.88073 6.4912 12.7141 6.4912Z" fill="#EB4335"/>
</svg>
