<svg width="17" height="20" viewBox="0 0 17 20" fill="none" xmlns="http://www.w3.org/2000/svg">
<g clip-path="url(#clip0_1_24)">
<path d="M12.732 20.0001H4.269C3.1498 20.0113 2.07184 19.5782 1.27155 18.7957C0.471259 18.0132 0.0139776 16.9453 0 15.8261L0 10.8881C0.0070683 9.99648 0.300104 9.13064 0.836 8.41797C1.3719 7.7053 2.12236 7.18343 2.977 6.92912V5.40012C2.99598 3.95512 3.58581 2.57629 4.61774 1.56459C5.64967 0.552899 7.0399 -0.00951041 8.485 0.000121714C9.94664 -0.00669635 11.3525 0.560684 12.4 1.58012C12.9136 2.0749 13.3221 2.66825 13.601 3.32464C13.8799 3.98103 14.0234 4.68695 14.023 5.40012V6.92912C14.8776 7.18343 15.6281 7.7053 16.164 8.41797C16.6999 9.13064 16.9929 9.99648 17 10.8881V15.8251C16.9863 16.9443 16.5293 18.0123 15.7292 18.795C14.9291 19.5777 13.8512 20.0111 12.732 20.0001ZM8.5 11.3841C8.2681 11.3817 8.04474 11.4715 7.87898 11.6337C7.71323 11.7959 7.61864 12.0172 7.616 12.2491V14.4551C7.616 14.6909 7.70966 14.917 7.87638 15.0837C8.0431 15.2505 8.26922 15.3441 8.505 15.3441C8.74078 15.3441 8.9669 15.2505 9.13362 15.0837C9.30034 14.917 9.394 14.6909 9.394 14.4551V12.2491C9.38979 12.016 9.29333 11.794 9.12575 11.6319C8.95817 11.4697 8.73315 11.3806 8.5 11.3841ZM8.51 1.73912C7.53105 1.72758 6.5872 2.10336 5.88406 2.78459C5.18091 3.46581 4.77545 4.3973 4.756 5.37612V6.71412H12.245V5.40012C12.2399 4.91414 12.1391 4.43392 11.9484 3.9869C11.7577 3.53987 11.4807 3.13481 11.1334 2.79483C10.7861 2.45486 10.3752 2.18664 9.92424 2.0055C9.47324 1.82436 8.99098 1.73384 8.505 1.73912H8.51Z" fill="#57A5D8"/>
</g>
<defs>
<clipPath id="clip0_1_24">
<rect width="17" height="20" fill="white"/>
</clipPath>
</defs>
</svg>
